<?xml version="1.0" encoding="UTF-8" standalone="no"?>
<svg
   xmlns:dc="http://purl.org/dc/elements/1.1/"
   xmlns:cc="http://creativecommons.org/ns#"
   xmlns:rdf="http://www.w3.org/1999/02/22-rdf-syntax-ns#"
   xmlns:svg="http://www.w3.org/2000/svg"
   xmlns="http://www.w3.org/2000/svg"
   xmlns:sodipodi="http://sodipodi.sourceforge.net/DTD/sodipodi-0.dtd"
   xmlns:inkscape="http://www.inkscape.org/namespaces/inkscape"
   version="1.1"
   x="0px"
   y="0px"
   viewBox="0 0 90 90"
   enable-background="new 0 0 90 90"
   xml:space="preserve"
   id="svg22"
   sodipodi:docname="check.svg"
   width="90"
   height="90"
   inkscape:version="1.0.1 (3bc2e813f5, 2020-09-07)"><metadata
     id="metadata28"><rdf:RDF><cc:Work
         rdf:about=""><dc:format>image/svg+xml</dc:format><dc:type
           rdf:resource="http://purl.org/dc/dcmitype/StillImage" /><dc:title /></cc:Work></rdf:RDF></metadata><defs
     id="defs26" /><sodipodi:namedview
     pagecolor="#55147f"
     bordercolor="#33cc33"
     borderopacity="1"
     objecttolerance="10"
     gridtolerance="10"
     guidetolerance="10"
     inkscape:pageopacity="0"
     inkscape:pageshadow="2"
     inkscape:window-width="1366"
     inkscape:window-height="705"
     id="namedview24"
     showgrid="false"
     inkscape:zoom="4.7822222"
     inkscape:cx="4.746747"
     inkscape:cy="47.885688"
     inkscape:window-x="-8"
     inkscape:window-y="-8"
     inkscape:window-maximized="1"
     inkscape:current-layer="svg22"
     inkscape:document-rotation="0" /><path
     d="M 45,2.5 C 21.528,2.5 2.5,21.528 2.5,45 2.5,68.472 21.528,87.5 45,87.5 68.472,87.5 87.5,68.472 87.5,45 87.5,21.528 68.472,2.5 45,2.5 Z M 70.285,35.151 43.517,61.92 c -0.938,0.938 -2.209,1.465 -3.536,1.465 -1.327,0 -2.598,-0.526 -3.536,-1.465 L 19.714,45.19 c -1.953,-1.953 -1.953,-5.119 0,-7.071 1.953,-1.952 5.118,-1.952 7.071,0 L 39.98,51.314 63.215,28.08 c 1.951,-1.952 5.119,-1.952 7.07,0 1.953,1.952 1.953,5.118 0,7.071 z"
     id="path20"
     style="fill:#55147f" /></svg>
